<svg width="32" height="32" viewBox="0 0 32 32" fill="none" xmlns="http://www.w3.org/2000/svg">
<g clip-path="url(#clip0_97_425)">
<circle cx="16" cy="16" r="16" fill="white"/>
<path d="M15.9543 8.14725C16.592 7.59809 17.1817 7.04037 17.823 6.54968C18.8193 5.78798 19.9308 5.2488 21.1933 5.08263C23.0442 4.83871 24.6116 5.42782 25.9006 6.74581C27.1403 8.01246 27.7293 9.57794 27.9483 11.3117C28.1945 13.2595 27.5296 14.9726 26.6192 16.6251C25.4956 18.6641 24.057 20.4771 22.5246 22.2202C21.0345 23.9154 19.4498 25.5201 17.7937 27.0535C16.7036 28.0634 15.2042 28.0434 14.1278 27.025C13.6482 26.5714 13.1701 26.1171 12.702 25.6521C10.4976 23.4633 8.39626 21.1853 6.62198 18.627C5.6758 17.2627 4.83627 15.8391 4.32668 14.2466C3.46566 11.5499 4.35314 8.19932 6.44162 6.40062C8.25454 4.83871 10.2901 4.62974 12.4651 5.54193C13.6854 6.05401 14.7025 6.86135 15.6214 7.79779C15.7395 7.91832 15.8541 8.04241 15.9543 8.14725Z" fill="#0BA65B"/>
</g>
<defs>
<clipPath id="clip0_97_425">
<rect width="32" height="32" fill="white"/>
</clipPath>
</defs>
</svg>
