<svg width="330" height="104" viewBox="0 0 330 104" fill="none" xmlns="http://www.w3.org/2000/svg">
<path d="M313.844 3.3132C314.508 2.73512 315.122 2.14803 315.79 1.63152C316.828 0.829713 317.986 0.262146 319.301 0.0872208C321.229 -0.169536 322.862 0.450584 324.204 1.83797C325.496 3.1713 326.109 4.8192 326.337 6.64428C326.594 8.69458 325.901 10.4979 324.953 12.2374C323.783 14.3838 322.284 16.2922 320.688 18.127C319.136 19.9115 317.485 21.6007 315.76 23.2148C314.624 24.2779 313.062 24.2569 311.941 23.1848C311.442 22.7073 310.944 22.2291 310.456 21.7396C308.16 19.4356 305.971 17.0377 304.123 14.3447C303.137 12.9085 302.263 11.41 301.732 9.73362C300.835 6.89503 301.759 3.368 303.935 1.47461C305.823 -0.169536 307.944 -0.389506 310.209 0.570704C311.48 1.10974 312.54 1.95959 313.497 2.94533C313.62 3.07221 313.739 3.20284 313.844 3.3132Z" fill="white"/>
<path d="M21.12 80.848C24.128 80.848 26.336 80.4 27.744 79.504C29.216 78.608 29.952 77.04 29.952 74.8C29.952 73.264 29.568 72.016 28.8 71.056C28.032 70.096 26.816 69.232 25.152 68.464C23.488 67.696 20.832 66.64 17.184 65.296C10.976 63.056 6.56 60.752 3.936 58.384C1.312 55.952 0 52.624 0 48.4C0 43.6 1.792 40.048 5.376 37.744C8.96 35.376 14.4 34.192 21.696 34.192C25.408 34.192 29.056 34.576 32.64 35.344C36.224 36.048 39.008 36.88 40.992 37.84L39.84 49.36H38.208C36.48 45.072 34.4 41.84 31.968 39.664C29.536 37.424 26.016 36.304 21.408 36.304C18.464 36.304 16.192 36.72 14.592 37.552C12.992 38.32 12.192 39.76 12.192 41.872C12.192 43.344 12.544 44.528 13.248 45.424C14.016 46.32 15.168 47.152 16.704 47.92C18.304 48.688 20.928 49.808 24.576 51.28C29.824 53.392 33.792 55.216 36.48 56.752C39.168 58.288 41.152 60.048 42.432 62.032C43.712 64.016 44.352 66.512 44.352 69.52C44.352 74.32 42.496 77.808 38.784 79.984C35.136 82.096 29.632 83.152 22.272 83.152C18.368 83.152 14.272 82.768 9.984 82C5.76 81.296 2.592 80.464 0.48 79.504L1.824 66.448H3.456C4.608 71.504 6.656 75.184 9.6 77.488C12.544 79.728 16.384 80.848 21.12 80.848Z" fill="white"/>
<path d="M88.8638 82C87.0718 82 85.7917 81.648 85.0238 80.944C84.3197 80.176 83.9678 78.928 83.9678 77.2V76.72C79.6798 80.88 73.5678 82.96 65.6318 82.96C61.4718 82.96 58.2077 82.032 55.8397 80.176C53.5357 78.256 52.3838 75.312 52.3838 71.344C52.3838 67.376 53.5357 64.272 55.8397 62.032C58.2077 59.792 61.6317 58.192 66.1117 57.232C70.5917 56.272 76.5438 55.696 83.9678 55.504V48.496C83.9678 44.912 83.2638 42.352 81.8558 40.816C80.4478 39.216 77.9838 38.416 74.4638 38.416C71.5198 38.416 68.7677 38.832 66.2077 39.664C63.7117 40.432 61.1518 41.616 58.5278 43.216L57.2798 41.392C60.3518 39.216 64.0317 37.488 68.3197 36.208C72.6717 34.864 77.5358 34.192 82.9118 34.192C90.1438 34.192 95.2958 35.632 98.3678 38.512C101.44 41.328 102.976 45.424 102.976 50.8V77.392C102.976 78.096 103.104 78.576 103.36 78.832C103.68 79.088 104.32 79.312 105.28 79.504L108.64 80.272V82H88.8638ZM76.3838 76.912C79.1358 76.912 81.6638 75.824 83.9678 73.648V58.096C80.3838 58.352 77.6637 58.928 75.8077 59.824C73.9517 60.656 72.6718 61.872 71.9678 63.472C71.3278 65.072 71.0078 67.248 71.0078 70C71.0078 72.432 71.4238 74.192 72.2558 75.28C73.1518 76.368 74.5278 76.912 76.3838 76.912Z" fill="white"/>
<path d="M112.821 101.968L116.181 101.2C117.141 101.008 117.749 100.784 118.005 100.528C118.325 100.272 118.485 99.792 118.485 99.088V41.104C118.485 40.4 118.325 39.92 118.005 39.664C117.749 39.408 117.141 39.184 116.181 38.992L112.821 38.224V36.496L135.861 33.616H137.493V39.184C141.781 35.856 147.349 34.192 154.197 34.192C161.301 34.192 166.933 36.112 171.093 39.952C175.253 43.792 177.333 49.84 177.333 58.096C177.333 66.608 175.253 72.88 171.093 76.912C166.933 80.944 161.301 82.96 154.197 82.96C147.093 82.96 141.589 80.88 137.685 76.72V99.088C137.685 99.792 137.813 100.272 138.069 100.528C138.389 100.784 139.029 101.008 139.989 101.2L143.349 101.968V103.696H112.821V101.968ZM148.053 38.224C144.085 38.224 140.629 39.44 137.685 41.872V73.456C139.157 75.056 140.821 76.368 142.677 77.392C144.533 78.352 146.485 78.832 148.533 78.832C150.837 78.832 152.629 78.128 153.909 76.72C155.253 75.312 156.181 73.136 156.693 70.192C157.269 67.184 157.557 63.152 157.557 58.096C157.557 50.992 156.853 45.904 155.445 42.832C154.037 39.76 151.573 38.224 148.053 38.224Z" fill="white"/>
<path d="M226.59 41.104C226.59 40.4 226.43 39.92 226.11 39.664C225.854 39.408 225.246 39.184 224.286 38.992L220.926 38.224V36.496L244.158 33.616H245.79V77.392C245.79 78.096 245.918 78.576 246.174 78.832C246.494 79.088 247.134 79.312 248.094 79.504L251.454 80.272V82H231.966C230.11 82 228.766 81.616 227.934 80.848C227.166 80.016 226.782 78.736 226.782 77.008V75.952C224.478 77.936 221.566 79.632 218.046 81.04C214.526 82.448 210.622 83.152 206.334 83.152C200.382 83.152 196.126 81.904 193.566 79.408C191.006 76.912 189.726 73.168 189.726 68.176V41.104C189.726 40.4 189.566 39.92 189.246 39.664C188.99 39.408 188.382 39.184 187.422 38.992L184.062 38.224V36.496L207.294 33.616H208.926V69.904C208.926 72.784 209.374 74.832 210.27 76.048C211.23 77.264 212.798 77.872 214.974 77.872C218.814 77.872 222.686 76.272 226.59 73.072V41.104Z" fill="white"/>
<path d="M255.879 37.84V35.344C257.863 35.344 259.335 35.184 260.295 34.864C261.255 34.544 262.215 33.968 263.175 33.136L280.263 17.776H281.127V35.344H293.511V37.84H281.127V70.096C281.127 73.168 281.479 75.344 282.183 76.624C282.951 77.84 284.231 78.448 286.023 78.448C287.431 78.448 288.679 78.16 289.767 77.584C290.855 77.008 292.039 76.016 293.319 74.608L294.855 76.432C290.823 80.912 284.871 83.152 276.999 83.152C271.687 83.152 267.879 82.032 265.575 79.792C263.271 77.552 262.119 74.064 262.119 69.328V37.84H255.879Z" fill="white"/>
<path d="M299.107 80.272L302.467 79.504C303.427 79.312 304.035 79.088 304.291 78.832C304.611 78.576 304.771 78.096 304.771 77.392V41.104C304.771 40.4 304.611 39.92 304.291 39.664C304.035 39.408 303.427 39.184 302.467 38.992L299.107 38.224V36.496L322.147 33.616H323.971V77.392C323.971 78.096 324.099 78.576 324.355 78.832C324.675 79.088 325.315 79.312 326.275 79.504L329.635 80.272V82H299.107V80.272Z" fill="white"/>
</svg>
